<svg xmlns="http://www.w3.org/2000/svg" width="236" height="20">
  <title>IACR ePrint PDF</title>
  <defs>
    <linearGradient id="workflow-fill" x1="50%" y1="0%" x2="50%" y2="100%">
      <stop stop-color="#444D56" offset="0%"></stop>
      <stop stop-color="#24292E" offset="100%"></stop>
    </linearGradient>
    <linearGradient id="state-fill" x1="50%" y1="0%" x2="50%" y2="100%">
      <stop stop-color="#586aa8" offset="0%"></stop>
      <stop stop-color="#112a83" offset="100%"></stop>
    </linearGradient>
  </defs>
  <g fill="none" fill-rule="evenodd">
    <g font-family="&#39;DejaVu Sans&#39;,Verdana,Geneva,sans-serif" font-size="11">
      <path id="workflow-bg" d="M0,3 C0,1.3431 1.3552,0 3.02702703,0 L100,0 L100,20 L3.02702703,20 C1.3552,20 0,18.6569 0,17 L0,3 Z" fill="url(#workflow-fill)" fill-rule="nonzero"></path>
      <text fill="#010101" fill-opacity=".3">
        <tspan x="22.1981982" y="15" aria-hidden="true">IACR ePrint</tspan>
      </text>
      <text fill="#FFFFFF">
        <tspan x="22.1981982" y="14">IACR ePrint</tspan>
      </text>
    </g>
    <g transform="translate(100)" font-family="&#39;DejaVu Sans&#39;,Verdana,Geneva,sans-serif" font-size="11">
      <path d="M0 0h46.939C48.629 0 50 1.343 50 3v14c0 1.657-1.37 3-3.061 3H0V0z" id="state-bg" fill="url(#state-fill)" fill-rule="nonzero"></path>
      <text fill="#010101" fill-opacity=".3" aria-hidden="true">
        <tspan x="4" y="15">PDF</tspan>
      </text>
      <text fill="#FFFFFF">
        <tspan x="4" y="14">PDF</tspan>
      </text>
    </g>
  </g>
<image href="iacrlogo_small.png" x="2" y="2" width="16" height="16"/>
</svg>

